<?xml version="1.0" encoding="UTF-8"?>
<svg width="112px" height="26px" viewBox="0 0 112 26" version="1.1" xmlns="http://www.w3.org/2000/svg" xmlns:xlink="http://www.w3.org/1999/xlink">
    <!-- Generator: Sketch 63.1 (92452) - https://sketch.com -->
    <title>knet 112*26 logo</title>
    <desc>Created with Sketch.</desc>
    <g id="knet-112*26-logo" stroke="none" stroke-width="1" fill="none" fill-rule="evenodd">
        <g id="knet-logo" transform="translate(0.000000, 2.000000)" fill="#8316B5">
            <path d="M18.6736025,14.6621528 C19.4989025,14.6545139 20.2099275,14.3532986 20.7886525,13.7647569 C21.3679025,13.178125 21.6584025,12.4628472 21.6507025,11.6375 C21.6430025,10.8138889 21.3388525,10.1041667 20.7491025,9.53298611 C20.1579525,8.96336806 19.4422025,8.67725694 18.6179525,8.68489583 C17.7933525,8.69253472 17.0818025,8.99184028 16.5039525,9.57239583 C15.9259275,10.1543403 15.6349025,10.8699653 15.6422525,11.6930556 C15.6499525,12.51875 15.9527025,13.2286458 16.5431525,13.8043403 C17.1320275,14.3817708 17.8490025,14.6697917 18.6736025,14.6621528 L18.6736025,14.6621528 Z M18.1473775,18.5661458 C16.4364025,18.5822917 14.9312275,17.9265625 13.6749025,16.6213542 C12.4287275,15.3230903 11.7877025,13.6821181 11.7695025,11.7491319 C11.7507775,9.74895833 12.3412275,8.07517361 13.5256275,6.77326389 C14.7198275,5.46024306 16.2012025,4.78784722 17.9289775,4.77170139 C18.7261025,4.76440972 19.4875275,4.91059028 20.1917275,5.20399306 C20.5728775,5.36527778 20.9403775,5.56892361 21.2923025,5.81701389 L21.2893275,5.54548611 C21.2868775,5.27465278 21.5059775,5.05243056 21.7782775,5.04982639 L24.8432275,5.02170139 C25.1171025,5.01909722 25.3388275,5.23732639 25.3411025,5.5078125 L25.4547076,17.6914931 C25.4576525,17.9635417 25.2397775,18.1857639 24.9660775,18.1883681 L21.9009525,18.2168403 C21.6286525,18.2189236 21.4055275,18.0010417 21.4029025,17.7291667 L21.4008025,17.4897569 C21.0331275,17.7588542 20.6614275,17.9729167 20.2909525,18.1322917 C19.6324275,18.4125 18.9121275,18.5592014 18.1473775,18.5661458 L18.1473775,18.5661458 Z M75.7113525,18.5619792 C75.0930775,18.5619792 74.5558275,18.3411458 74.1178025,17.9036458 C73.6787275,17.4664931 73.4566525,16.9300347 73.4566525,16.3114583 C73.4566525,15.6927083 73.6787275,15.1576389 74.1178025,14.7243056 C74.5558275,14.2930556 75.0930775,14.0723958 75.7113525,14.0723958 C76.3303275,14.0723958 76.8667025,14.2930556 77.3057775,14.7243056 C77.7446775,15.1576389 77.9683275,15.6927083 77.9683275,16.3114583 C77.9683275,16.9300347 77.7446775,17.4664931 77.3070025,17.9036458 C76.8674025,18.3411458 76.3315525,18.5619792 75.7113525,18.5619792 L75.7113525,18.5619792 Z M101.046627,10.2770833 C100.852727,9.79375 100.595652,9.37604167 100.269627,9.01302083 C99.7208275,8.40885417 99.0994025,8.11354167 98.3670275,8.11354167 C97.5658775,8.11354167 96.8849525,8.44756944 96.2878525,9.13524306 C96.0698025,9.38454861 95.8571775,9.76527778 95.6494525,10.2770833 L101.046627,10.2770833 Z M98.5390525,18.5621528 C96.4954025,18.5621528 94.8024525,17.9046875 93.5065775,16.6081597 C92.2119275,15.3119792 91.5555025,13.6723958 91.5555025,11.7317708 C91.5555025,9.74930556 92.2087775,8.07413194 93.4985275,6.75677083 C94.7896775,5.43645833 96.4294275,4.76510417 98.3705275,4.76510417 C100.423102,4.76510417 102.120777,5.43541667 103.416477,6.75677083 C104.708327,8.07326389 105.364227,9.82777778 105.364227,11.9678819 L105.353727,12.5597222 C105.349002,12.8258681 105.129902,13.0421875 104.859702,13.0421875 L95.6436775,13.0421875 C95.8115025,13.5225694 96.0832775,13.9184028 96.4689775,14.2355903 C96.9994025,14.6760417 97.6686025,14.8887153 98.5173525,14.8887153 C99.5374275,14.8887153 100.391077,14.5420139 101.124677,13.8302083 C101.219527,13.7381944 101.343427,13.6897569 101.469602,13.6897569 C101.540652,13.6897569 101.612402,13.70625 101.679952,13.7366319 L104.261902,14.9479167 C104.394377,15.0078125 104.491327,15.1263889 104.529477,15.2663194 C104.566577,15.4078125 104.539802,15.5576389 104.455802,15.6772569 C103.765427,16.6527778 102.924202,17.3852431 101.955227,17.8565972 C100.993077,18.3246528 99.8450775,18.5621528 98.5390525,18.5621528 L98.5390525,18.5621528 Z M106.456227,18.2470486 C106.184452,18.2470486 105.962377,18.0279514 105.962377,17.7546875 L105.962377,0.86875 C105.962377,0.596354167 106.184452,0.376388889 106.456227,0.376388889 L109.521877,0.376388889 C109.794177,0.376388889 110.015202,0.596354167 110.015202,0.86875 L110.015202,5.08524306 L111.340477,5.08524306 C111.612077,5.08524306 111.833802,5.30538194 111.833802,5.57690972 L111.833802,7.89427083 C111.833802,8.16666667 111.612077,8.38732639 111.340477,8.38732639 L110.015202,8.38732639 L110.015202,17.7546875 C110.015202,18.0279514 109.794177,18.2470486 109.521877,18.2470486 L106.456227,18.2470486 Z M87.4326775,18.2470486 C87.1603775,18.2470486 86.9407525,18.0279514 86.9407525,17.7546875 L86.9407525,12.4204861 C86.9407525,10.671875 86.8422275,9.95138889 86.7608525,9.65347222 C86.6579525,9.278125 86.4922275,9.00798611 86.2526525,8.82309028 C86.0130775,8.63958333 85.7185525,8.5515625 85.3501775,8.5515625 C84.8554525,8.5515625 84.4438525,8.70972222 84.0912275,9.03940972 C83.7200525,9.38420139 83.4591275,9.87829861 83.3098525,10.5092014 C83.2545525,10.7449653 83.1885775,11.3444444 83.1885775,12.8666667 L83.1885775,17.7546875 C83.1885775,18.0279514 82.9672025,18.2470486 82.6952525,18.2470486 L79.6313525,18.2470486 C79.3571275,18.2470486 79.1350525,18.0279514 79.1350525,17.7546875 L79.1350525,5.57222222 C79.1350525,5.30017361 79.3571275,5.07986111 79.6313525,5.07986111 L82.6952525,5.07986111 C82.9672025,5.07986111 83.1885775,5.30017361 83.1885775,5.57222222 L83.1885775,5.81927083 C83.6140025,5.52430556 84.0149275,5.30017361 84.3976525,5.1453125 C85.0201275,4.89444444 85.6650025,4.76510417 86.3170525,4.76510417 C87.6573775,4.76510417 88.8118525,5.24097222 89.7477525,6.17534722 C90.5524025,6.98680556 90.9577025,8.17395833 90.9577025,9.70364583 L90.9577025,17.7546875 C90.9577025,18.0279514 90.7366775,18.2470486 90.4647275,18.2470486 L87.4326775,18.2470486 Z M62.9438775,10.2770833 C62.7515525,9.79375 62.4930775,9.37447917 62.1677525,9.01302083 C61.6189525,8.40746528 60.9966525,8.11197917 60.2641025,8.11197917 C59.4638275,8.11197917 58.7834275,8.446875 58.1852775,9.13402778 C57.9675775,9.38229167 57.7542525,9.76354167 57.5467025,10.2770833 L62.9438775,10.2770833 Z M60.4420775,18.5621528 C58.4000025,18.5621528 56.7070525,17.9046875 55.4108275,16.6078125 C54.1163525,15.3116319 53.4595775,13.6708333 53.4595775,11.7302083 C53.4595775,9.74704861 54.1133775,8.07256944 55.4019025,6.75677083 C56.6949775,5.43541667 58.3335025,4.76614583 60.2742525,4.76614583 C62.3263025,4.76614583 64.0246775,5.43541667 65.3195025,6.75538194 C66.6145025,8.07256944 67.2700525,9.82534722 67.2700525,11.9654514 L67.2579775,12.5581597 C67.2516775,12.8258681 67.0329275,13.0409722 66.7643025,13.0409722 L57.5467025,13.0409722 C57.7152275,13.5225694 57.9864775,13.9149306 58.3716525,14.2352431 C58.9034775,14.6744792 59.5730275,14.8887153 60.4205525,14.8887153 C61.4408025,14.8887153 62.2944525,14.5420139 63.0285775,13.8295139 C63.1227275,13.7381944 63.2469775,13.6897569 63.3726275,13.6897569 C63.4435025,13.6897569 63.5161275,13.7059028 63.5829775,13.7366319 L66.1654525,14.9461806 C66.2970525,15.0078125 66.3955775,15.1244792 66.4330275,15.265625 C66.4701275,15.4065972 66.4431775,15.5572917 66.3586525,15.6756944 C65.6698525,16.6512153 64.8293275,17.3852431 63.8587775,17.85625 C62.8976775,18.3230903 61.7486275,18.5621528 60.4420775,18.5621528 L60.4420775,18.5621528 Z M37.3405025,4.48819444 C36.7211775,4.48819444 36.1842775,4.26770833 35.7459025,3.83107639 C35.3068275,3.39305556 35.0844025,2.85763889 35.0844025,2.23784722 C35.0844025,1.61996528 35.3071775,1.08559028 35.7459025,0.652083333 C36.1842775,0.220486111 36.7211775,1.32634644e-14 37.3405025,1.32634644e-14 C37.9589525,1.32634644e-14 38.4942775,0.220486111 38.9345775,0.652083333 C39.3736525,1.08559028 39.5967775,1.61996528 39.5967775,2.23784722 C39.5967775,2.85763889 39.3736525,3.39305556 38.9345775,3.83107639 C38.4962025,4.26770833 37.9600025,4.48819444 37.3405025,4.48819444 L37.3405025,4.48819444 Z M68.7517775,18.2470486 C68.4801775,18.2470486 68.2598525,18.0267361 68.2598525,17.7546875 L68.2598525,5.57065972 C68.2598525,5.30017361 68.4801775,5.07986111 68.7517775,5.07986111 L71.3787025,5.07986111 C71.6522275,5.07986111 71.8739525,5.30017361 71.8739525,5.57065972 L71.8739525,5.60173611 C71.9894525,5.49722222 72.1119525,5.40555556 72.2393525,5.31857639 C72.7914775,4.95121528 73.4048525,4.76631944 74.0626775,4.76631944 C74.5311525,4.76631944 75.0230775,4.88975694 75.5239275,5.12777778 C75.7524775,5.23888889 75.8597525,5.50190972 75.7729525,5.73819444 L74.8192025,8.36875 C74.7703775,8.50329861 74.6678275,8.60954861 74.5381525,8.66006944 C74.4783025,8.68420139 74.4165275,8.69583333 74.3544025,8.69583333 C74.2782775,8.69583333 74.2035525,8.67864583 74.1340775,8.64357639 C73.7552025,8.45503472 73.5536025,8.42690972 73.4683775,8.42690972 C73.3642525,8.42690972 73.0508275,8.42690972 72.7038025,9.04826389 C72.5090275,9.39479167 72.2771525,10.2291667 72.2771525,12.2329861 L72.2881775,12.8189236 L72.2881775,17.7546875 C72.2881775,18.0267361 72.0678525,18.2470486 71.7946775,18.2470486 L68.7517775,18.2470486 Z M43.0624775,22.7026042 C42.8936025,22.7026042 42.7366275,22.6163194 42.6451025,22.475 C42.5553275,22.3335069 42.5422025,22.1543403 42.6143025,22.0032986 L45.0354275,16.8340278 L40.4744025,5.75885417 C40.4112275,5.60746528 40.4283775,5.43559028 40.5200775,5.29722222 C40.6117775,5.16076389 40.7652525,5.08003472 40.9295775,5.08003472 L44.0624275,5.08003472 C44.2624525,5.08003472 44.4442775,5.2 44.5193525,5.38420139 L47.2582775,11.9826389 L50.2882275,5.36666667 C50.3676775,5.19149306 50.5428525,5.08003472 50.7374525,5.08003472 L53.8780025,5.08003472 C54.0467025,5.08003472 54.2028025,5.16371528 54.2948525,5.30694444 C54.3849775,5.44809028 54.3981025,5.62326389 54.3274025,5.77708333 L46.6755275,22.4168403 C46.5964275,22.5911458 46.4205525,22.7026042 46.2270025,22.7026042 L43.0624775,22.7026042 Z M35.8080275,18.2470486 C35.5357275,18.2470486 35.3134775,18.0267361 35.3134775,17.7546875 L35.3134775,5.57065972 C35.3134775,5.30017361 35.5357275,5.07986111 35.8080275,5.07986111 L38.8722775,5.07986111 C39.1442275,5.07986111 39.3659525,5.30017361 39.3659525,5.57065972 L39.3659525,17.7546875 C39.3659525,18.0267361 39.1442275,18.2470486 38.8722775,18.2470486 L35.8080275,18.2470486 Z M27.3193025,18.2470486 C27.0471775,18.2470486 26.8259775,18.0267361 26.8259775,17.7546875 L26.8259775,5.57065972 C26.8259775,5.30017361 27.0471775,5.07986111 27.3193025,5.07986111 L29.9476275,5.07986111 C30.2188775,5.07986111 30.4406025,5.30017361 30.4406025,5.57065972 L30.4406025,5.60173611 C30.5575025,5.49722222 30.6798275,5.40555556 30.8077525,5.31857639 C31.3586525,4.95121528 31.9729025,4.76631944 32.6303775,4.76631944 C33.0992025,4.76631944 33.5909525,4.88975694 34.0912775,5.12777778 C34.3187775,5.23732639 34.4272775,5.50190972 34.3415275,5.73819444 L33.3872525,8.36875 C33.3387775,8.50329861 33.2362275,8.60954861 33.1056775,8.66006944 C33.0467025,8.68420139 32.9847525,8.69583333 32.9228025,8.69583333 C32.8466775,8.69583333 32.7716025,8.67864583 32.7026525,8.64357639 C32.3236025,8.45503472 32.1216525,8.42690972 32.0348525,8.42690972 C31.9314275,8.42690972 31.6185275,8.42690972 31.2706275,9.04826389 C31.0763775,9.39513889 30.8455525,10.2307292 30.8455525,12.2329861 L30.8557025,12.8189236 L30.8557025,17.7546875 C30.8557025,18.0267361 30.6359025,18.2470486 30.3616775,18.2470486 L27.3193025,18.2470486 Z M8.7448025,18.2470486 C8.6069025,18.2470486 8.4761775,18.1883681 8.3815025,18.0881944 L4.0516525,13.4010417 L4.0516525,17.7546875 C4.0516525,18.0267361 3.8313275,18.2470486 3.5579775,18.2470486 L0.4928525,18.2470486 C0.2202025,18.2470486 -0.0001225,18.0267361 -0.0001225,17.7546875 L-0.0001225,0.869444444 C-0.0001225,0.596354167 0.2202025,0.376388889 0.4928525,0.376388889 L3.5579775,0.376388889 C3.8313275,0.376388889 4.0516525,0.596354167 4.0516525,0.869444444 L4.0516525,9.30590278 L7.7042525,5.24461806 C7.7973525,5.1390625 7.9296525,5.07986111 8.0715775,5.07986111 L11.9215775,5.07986111 C12.1165275,5.07986111 12.2932775,5.19305556 12.3716775,5.37118056 C12.4514775,5.54947917 12.4189275,5.75677083 12.2876775,5.90121528 L7.3264275,11.4046875 L12.9119025,17.4208333 C13.0464775,17.5633681 13.0814775,17.7730903 13.0020275,17.9517361 C12.9239775,18.13125 12.7474025,18.2470486 12.5508775,18.2470486 L8.7448025,18.2470486 Z" id="Fill-1"></path>
        </g>
    </g>
</svg>